<svg xmlns="http://www.w3.org/2000/svg" width="500" height="500" viewBox="0 0 500 500" version="1.1"><path d="M 436.438 35.750 C 434.577 44.275, 431.560 47.249, 421 50.965 C 404.165 56.890, 399.814 62.303, 398.101 79.457 C 397.362 86.860, 396.822 88.725, 394.993 90.207 C 391.983 92.644, 390.511 92.465, 388.073 89.365 C 385.260 85.789, 385.220 76.518, 387.993 70.778 C 389.089 68.509, 389.755 66.422, 389.472 66.139 C 388.362 65.029, 379.766 74.804, 377.283 80 C 375.137 84.490, 374.648 86.970, 374.621 93.500 C 374.592 100.283, 374.999 102.293, 377.292 106.713 C 381.024 113.907, 385.221 118.414, 390.501 120.895 C 398.350 124.585, 404.416 123.282, 408.275 117.078 C 410.153 114.059, 410.500 112.071, 410.500 104.345 C 410.500 99.310, 410.865 95.710, 411.310 96.345 C 420.865 109.966, 414.824 131, 401.358 131 C 398.889 131, 395.962 130.515, 394.855 129.922 C 393.098 128.982, 392.883 129.121, 393.170 131.012 C 393.442 132.801, 395.330 133.784, 403.980 136.643 C 409.744 138.547, 416.944 141.343, 419.980 142.855 C 424.979 145.346, 425.925 145.505, 430 144.542 C 442.721 141.536, 452.002 131.723, 451.999 121.282 L 451.998 117.500 449.749 120.001 C 448.512 121.377, 446.654 123.168, 445.620 123.982 C 444.056 125.212, 444.172 124.622, 446.307 120.480 C 451.825 109.777, 451.172 104.114, 443.171 93.284 C 435.933 83.488, 434.563 80.204, 435.343 74.514 C 436.061 69.279, 434.737 69.219, 431.250 74.328 C 427.748 79.457, 428.181 86.096, 432.643 95.677 C 437.325 105.733, 437.633 112.538, 433.708 119.236 C 431.217 123.485, 428.554 125.896, 424.843 127.258 C 423.514 127.746, 423.761 126.598, 426.093 121.455 C 428.490 116.170, 429 113.702, 429 107.401 C 429 100.027, 428.820 99.446, 423.878 90.882 C 415.620 76.575, 416.137 70.655, 426.299 63.148 C 438.588 54.070, 443.057 45.200, 439.902 36.149 C 438.550 32.269, 437.231 32.117, 436.438 35.750 M 198.978 86.093 C 186.949 94.988, 170.662 107.706, 164.563 112.966 C 148.304 126.990, 141.228 134, 143.332 134 C 143.515 134, 147.452 132.059, 152.082 129.688 C 169.136 120.951, 199.355 109, 204.390 109 C 205.812 109, 207 104.820, 207 99.813 C 207 98.198, 208.160 92.846, 209.577 87.919 C 210.994 82.992, 211.997 78.490, 211.805 77.914 C 211.612 77.337, 205.840 81.018, 198.978 86.093 M 157.923 86.923 C 156.149 88.697, 155 90.898, 155 92.522 C 155 95.879, 160.245 101, 163.683 101 C 167.006 101, 172 95.897, 172 92.500 C 172 88.992, 167.008 84, 163.500 84 C 161.900 84, 159.685 85.161, 157.923 86.923 M 369.287 103.154 C 367.441 105.378, 365.806 114.129, 366.521 117.953 C 366.876 119.853, 368.021 123.082, 369.066 125.129 C 370.758 128.446, 371.576 128.978, 376.589 130.019 C 382.806 131.309, 383.476 130.987, 384.481 126.219 C 385.121 123.185, 384.732 122.502, 379.321 117.158 C 375.096 112.985, 373.052 110.036, 371.970 106.552 C 370.745 102.609, 370.255 101.988, 369.287 103.154 M 143.571 109.571 C 142.707 110.436, 142 111.754, 142 112.500 C 142 114.193, 144.727 117, 146.371 117 C 148.254 117, 150 114.835, 150 112.500 C 150 108.386, 146.398 106.745, 143.571 109.571 M 321.591 154.399 C 321.281 155.554, 321.016 158.300, 321.003 160.500 C 320.942 170.415, 312.955 187.804, 302.719 200.308 C 300.554 202.953, 299.007 205.340, 299.281 205.614 C 299.555 205.888, 302.416 205.438, 305.639 204.614 C 308.863 203.790, 314.425 202.800, 318 202.414 C 321.575 202.028, 324.725 201.394, 325 201.006 C 325.275 200.617, 332.700 197.844, 341.500 194.844 L 357.500 189.389 358.222 182.204 C 358.832 176.135, 358.653 174.514, 357.069 171.760 C 356.038 169.967, 354.889 167.037, 354.517 165.250 C 354.145 163.463, 353.743 162, 353.623 162 C 353.503 162, 348.026 160.136, 341.452 157.858 C 334.879 155.580, 327.848 153.397, 325.828 153.007 C 322.629 152.388, 322.083 152.568, 321.591 154.399 M 180.500 161.658 C 162.944 163.072, 133.119 169.630, 107.602 177.687 L 99.704 180.181 100.303 192.107 C 100.633 198.667, 101.179 204.480, 101.516 205.026 C 101.853 205.571, 103.839 203.876, 105.930 201.258 C 110.549 195.478, 113.232 193.033, 118.630 189.687 C 133.616 180.397, 154.404 180.790, 168.252 190.625 C 170.866 192.481, 173.295 194, 173.650 194 C 174.005 194, 178.167 190.281, 182.898 185.735 C 187.629 181.190, 195.996 174.102, 201.491 169.985 L 211.481 162.500 206.991 161.824 C 202.487 161.146, 187.987 161.055, 180.500 161.658 M 227.354 174.333 C 224.518 177.646, 218.810 184.672, 200.542 207.340 C 194.596 214.718, 191 218.459, 191 217.265 C 191 214.813, 194.970 203.240, 198.466 195.500 C 202.092 187.473, 203.040 185, 202.491 185 C 202.239 185, 197.488 191.794, 191.935 200.097 C 181.974 214.991, 181.856 215.237, 183.169 218.347 C 184.004 220.326, 184.484 225.410, 184.456 232 C 184.416 241.580, 184.153 243.020, 181.456 248.437 C 176.346 258.700, 167.297 266.326, 155.430 270.369 C 149.954 272.235, 137.948 272.526, 132.899 270.915 C 128.205 269.418, 120.856 265.901, 118.744 264.142 C 117.778 263.337, 116.690 262.976, 116.327 263.339 C 115.964 263.703, 115.854 264.162, 116.083 264.360 C 116.313 264.559, 118.672 266.359, 121.327 268.360 C 127.425 272.959, 125.925 273.006, 117.401 268.484 C 112.721 266.001, 110.954 265.437, 111.387 266.566 C 111.724 267.445, 112 268.736, 112 269.436 C 112 271.758, 116.825 276, 119.466 276 C 120.875 276, 122.809 276.395, 123.764 276.877 C 126.051 278.033, 132.345 280, 133.756 280 C 134.369 280, 136.137 280.523, 137.685 281.161 C 139.233 281.800, 140.785 282.268, 141.133 282.200 C 141.481 282.133, 140.944 284.720, 139.939 287.949 C 137.649 295.305, 137.276 305.297, 139.065 311.356 C 139.820 313.910, 140.676 315.973, 140.968 315.940 C 141.261 315.907, 145.100 311.150, 149.500 305.370 C 162.053 288.878, 173.418 276.227, 197.069 252.419 C 209.134 240.274, 218.729 230.063, 218.393 229.726 C 218.057 229.390, 218.651 227.852, 219.713 226.308 C 223.509 220.790, 228.294 208.854, 230.468 199.483 C 232.124 192.340, 232.601 171, 231.104 171 C 230.611 171, 228.923 172.500, 227.354 174.333 M 400.436 204.357 C 399.371 205.653, 396.109 208.509, 393.187 210.704 C 389.426 213.529, 386.432 217.094, 382.937 222.908 C 380.222 227.425, 378 231.350, 378 231.630 C 378 231.910, 379.364 234.122, 381.030 236.544 C 385.193 242.594, 389.726 252.419, 390.518 257.106 C 391.285 261.648, 392.691 262.171, 393.598 258.250 C 393.948 256.738, 395.024 252.350, 395.990 248.500 C 396.956 244.650, 398.290 238.575, 398.954 235 C 399.617 231.425, 400.544 226.475, 401.012 224 C 402.082 218.342, 403.428 202, 402.824 202 C 402.576 202, 401.501 203.061, 400.436 204.357 M 364.527 204.956 C 364.202 205.482, 363.333 205.681, 362.596 205.398 C 361.747 205.073, 361.074 205.831, 360.762 207.466 C 360.030 211.295, 361.249 211.275, 363.779 207.417 C 365.011 205.537, 365.816 204, 365.568 204 C 365.321 204, 364.852 204.430, 364.527 204.956 M 310 208.711 C 302.235 210.075, 292.914 214.584, 287.750 219.476 C 284.627 222.434, 284.082 224.607, 286.750 223.465 C 292.699 220.917, 314.167 219.277, 319.632 220.953 C 328.462 223.661, 333.486 227.993, 334.619 233.874 C 335.592 238.924, 334.347 249.808, 332.110 255.807 C 330.442 260.279, 330.356 261.200, 331.566 261.664 C 332.354 261.966, 333.617 261.977, 334.372 261.687 C 335.826 261.130, 353.184 263.232, 361.361 264.956 C 364.034 265.520, 366.622 265.734, 367.111 265.431 C 367.600 265.129, 368 263.205, 368 261.154 C 368 257.863, 367.435 257.005, 363.168 253.819 C 356.647 248.951, 351.297 242.404, 338.597 223.750 L 327.875 208 320.187 208.136 C 315.959 208.211, 311.375 208.470, 310 208.711 M 333.393 210.582 C 333.727 211.451, 337.937 218.070, 342.750 225.289 C 351.543 238.481, 364.371 253, 367.231 253 C 369.310 253, 369.933 249.004, 369.004 241.618 C 367.510 229.739, 366.416 227.355, 360.224 222.496 C 353.427 217.161, 344.873 212.472, 338.297 210.477 C 332.385 208.683, 332.662 208.678, 333.393 210.582 M 63.047 226.251 C 61.107 231.742, 59 244.200, 59 250.185 C 59 256.919, 61.103 267.349, 64.003 275 C 65.150 278.025, 66.346 281.288, 66.661 282.250 C 67.827 285.816, 69.001 283.828, 69.022 278.250 C 69.034 275.087, 69.651 267.906, 70.393 262.292 C 71.682 252.544, 71.638 251.652, 69.427 242.508 C 68.154 237.241, 66.810 230.916, 66.441 228.453 C 65.594 222.804, 64.513 222.103, 63.047 226.251 M 372 245.738 C 372 256.918, 372.051 257, 379.082 257 C 382.239 257, 383 256.638, 383 255.134 C 383 252.545, 376.467 239.733, 374.015 237.514 C 372.008 235.697, 372 235.728, 372 245.738 M 371.488 260.410 C 370.031 265.281, 370.362 267.122, 373.038 269.027 C 374.562 270.112, 376.086 271, 376.424 271 C 376.763 271, 378.822 272.125, 381 273.500 C 383.178 274.875, 385.194 276, 385.480 276 C 385.766 276, 386 272.611, 386 268.469 C 386 263.322, 385.604 260.812, 384.750 260.540 C 381.470 259.499, 371.789 259.404, 371.488 260.410 M 327.360 266.125 C 326.759 266.881, 325.078 269.661, 323.624 272.302 C 322.171 274.943, 320.523 277.643, 319.962 278.302 C 316.065 282.883, 307.262 295.928, 307.743 296.410 C 308.068 296.734, 307.733 297, 307 297 C 306.267 297, 305.914 297.248, 306.217 297.550 C 306.520 297.853, 313.007 295.554, 320.634 292.441 C 328.260 289.328, 337.875 285.419, 342 283.755 C 347.159 281.674, 351.526 280.654, 355.990 280.487 L 362.480 280.246 364.315 276.038 C 365.324 273.725, 365.920 271.235, 365.641 270.506 C 364.696 268.044, 353.908 265.740, 340.976 265.238 C 331.101 264.854, 328.221 265.042, 327.360 266.125 M 369.244 272.261 C 368.703 272.942, 367.712 275.202, 367.042 277.282 C 365.844 281.003, 365.889 281.127, 369.886 285.006 C 374.612 289.592, 375.307 291.686, 374.842 299.937 C 374.654 303.274, 374.828 306.003, 375.230 306.002 C 376.564 305.998, 381.974 295.595, 384.197 288.758 L 386.389 282.015 383.622 279.128 C 381.373 276.780, 377.321 274.300, 370.863 271.316 C 370.513 271.154, 369.784 271.580, 369.244 272.261 M 422.526 286.575 C 412.607 294.569, 396.009 303.101, 389.081 303.766 C 384.670 304.190, 383.823 304.668, 381.638 307.971 C 380.281 310.021, 376.597 314.273, 373.450 317.420 L 367.728 323.142 371.614 322.493 C 373.751 322.136, 378.875 320.545, 383 318.959 C 387.125 317.372, 391.157 315.945, 391.961 315.787 C 392.764 315.629, 394.235 314.784, 395.228 313.910 C 396.221 313.035, 398.264 311.686, 399.767 310.912 C 401.270 310.137, 402.725 309.248, 403 308.936 C 403.275 308.623, 405.525 306.950, 408 305.218 C 414.331 300.786, 420.862 294.545, 426.857 287.198 C 434.661 277.636, 433.775 277.509, 422.526 286.575 M 344.500 285.855 C 329.941 290.972, 313.539 298.419, 310.903 301.108 C 307.587 304.489, 306.468 311.481, 308.473 316.282 C 309.597 318.970, 311.157 320.246, 315.955 322.399 C 328.474 328.018, 337.489 323.112, 350.688 303.500 C 355.985 295.630, 361.224 285.171, 360.475 283.960 C 359.390 282.204, 352.595 283.009, 344.500 285.855 M 361.620 290.250 C 353.965 305.621, 343.167 319.980, 336.604 323.514 C 331.878 326.059, 332.054 327.003, 337.250 326.988 C 345.313 326.966, 356.239 322.968, 363.858 317.253 C 369.410 313.088, 374.233 300.050, 372.612 293.590 C 371.851 290.559, 367.267 285, 365.528 285 C 364.817 285, 363.058 287.363, 361.620 290.250 M 249 291.706 C 235.320 300.469, 230.924 303.499, 220.596 311.285 C 214.049 316.220, 207.524 321.264, 206.096 322.493 C 185.689 340.057, 173.492 351.452, 167.692 358.372 L 163.609 363.245 167.601 366.872 C 173.618 372.341, 177.151 375.315, 180.862 378.037 L 184.221 380.500 189.209 375 C 193.480 370.291, 202.920 359.032, 207.997 352.593 C 208.823 351.544, 210.895 349.069, 212.600 347.093 C 221.471 336.813, 250.971 295.845, 252.646 291.481 C 253.368 289.599, 252.174 289.673, 249 291.706 M 287.888 317.261 C 266.405 337.007, 238.568 356.281, 214.750 367.903 C 209.938 370.251, 206 372.535, 206 372.979 C 206 373.423, 205.302 374.054, 204.448 374.382 C 203.427 374.774, 203.110 374.554, 203.522 373.739 C 203.867 373.057, 203.470 373.333, 202.641 374.350 C 201.762 375.428, 200.624 375.885, 199.912 375.446 C 199.240 375.031, 198.939 375.098, 199.242 375.595 C 199.545 376.093, 199.397 378.975, 198.913 382 C 198.429 385.025, 198.285 388.300, 198.592 389.277 C 199.164 391.091, 213.903 402.536, 219.714 405.678 C 222.830 407.363, 222.998 407.352, 225.214 405.301 C 226.471 404.138, 231.775 400.601, 237 397.441 C 261.434 382.664, 286.548 363.121, 308.839 341.537 C 319.507 331.208, 320.032 330.519, 317.694 329.894 C 312.741 328.569, 303.307 322.838, 298.071 317.974 C 295.126 315.238, 292.668 313.005, 292.608 313.011 C 292.549 313.017, 290.425 314.929, 287.888 317.261 M 324.500 354.104 C 322.300 355.735, 319.825 357.624, 319 358.299 C 318.175 358.975, 315.925 360.638, 314 361.994 C 312.075 363.350, 305.447 368.411, 299.270 373.240 C 293.094 378.070, 286.119 383.380, 283.770 385.041 C 281.422 386.702, 276.350 390.277, 272.500 392.986 C 261.141 400.978, 259.612 402.611, 267 398.857 C 283.499 390.475, 307.001 373.607, 321.370 359.834 C 330.578 351.008, 331.874 348.634, 324.500 354.104" stroke="none" fill="#cf0818" fill-rule="evenodd"/><path d="M 281.170 61.747 C 269.093 68.100, 262.831 77.842, 262.168 91.308 C 261.818 98.409, 262.060 99.678, 264.834 105.308 C 268.481 112.709, 274.175 118.714, 280.711 122.053 C 284.892 124.189, 286.833 124.500, 296 124.500 C 305.030 124.500, 307.101 124.179, 310.791 122.209 C 316.841 118.978, 322.881 112.439, 325.761 106 C 329.218 98.272, 329.198 87.255, 325.712 79.782 C 322.789 73.514, 317.114 66.732, 312.973 64.560 C 311.338 63.702, 308.538 62.217, 306.750 61.260 C 304.573 60.095, 300.695 59.425, 295 59.232 C 287.317 58.971, 285.988 59.212, 281.170 61.747 M 128.459 116.879 C 115.135 125.624, 109.421 130.080, 98.030 140.613 C 92.774 145.473, 90.002 147.272, 76.821 154.380 L 71.143 157.442 70.428 165.971 C 70.035 170.662, 70.013 182.150, 70.379 191.500 C 71.446 218.753, 77.625 247.861, 88.422 276.500 C 92.111 286.286, 102.936 307.966, 108.892 317.500 C 123.289 340.543, 149.608 369.793, 171 386.526 C 175.125 389.753, 178.725 392.650, 179 392.964 C 180.505 394.684, 215.115 419.512, 224.500 425.605 C 227.800 427.747, 230.950 429.842, 231.500 430.260 C 234.226 432.333, 247.729 440.699, 249.326 441.303 C 251.548 442.146, 255.470 439.956, 275.351 426.776 C 291.540 416.042, 301.178 409.092, 313.500 399.264 C 322.569 392.031, 322.689 391.936, 329.500 386.523 C 353.303 367.606, 372.285 347.618, 386.117 326.906 C 394.300 314.652, 394.334 314.501, 388.369 316.865 C 377.850 321.034, 375.355 321.864, 371.500 322.475 C 369.300 322.823, 364.401 324.716, 360.612 326.681 C 356.824 328.646, 351.424 330.866, 348.612 331.615 C 342.390 333.272, 330.480 333.401, 324.430 331.878 L 319.974 330.756 308.737 341.636 C 285.593 364.046, 263.073 381.378, 232.573 400.256 C 228.347 402.871, 225.143 405.422, 225.453 405.923 C 225.762 406.425, 229.275 408.624, 233.258 410.810 C 237.241 412.996, 243.005 416.172, 246.067 417.868 L 251.634 420.952 262.567 414.617 C 273.780 408.120, 300.429 390.714, 302.812 388.331 C 303.544 387.599, 304.529 387, 305 387 C 305.471 387, 306.452 386.423, 307.179 385.717 C 307.905 385.011, 310.075 383.342, 312 382.006 C 319.090 377.088, 312.590 383.128, 303.124 390.255 C 297.831 394.240, 293.275 397.746, 293 398.046 C 291.389 399.804, 264.220 418.107, 255.860 423.066 L 251.219 425.819 245.360 422.300 C 236.436 416.941, 211.217 400.128, 204.809 395.265 C 201.679 392.890, 198.874 390.171, 198.575 389.223 C 197.732 386.543, 199.576 376.883, 201.118 375.906 C 203.266 374.545, 201.619 374.844, 197.514 376.559 C 191.490 379.076, 192.391 377.517, 199.198 373.647 C 215.373 364.451, 243.582 345.028, 261.500 330.750 C 283.825 312.960, 297.912 298.151, 310.872 278.847 C 321.893 262.431, 327.077 248.359, 324.912 240.735 C 323.119 234.424, 320.672 233, 311.615 233 C 295.205 233, 270.027 244.466, 238 266.524 C 223.825 276.286, 197.135 293.556, 199 291.759 C 200.644 290.175, 211.965 280.617, 219.029 274.850 C 258.369 242.732, 272.589 228.285, 288.273 204.500 C 300.716 185.629, 306.148 171.439, 306.263 157.500 C 306.344 147.753, 305.141 144.055, 300.136 138.658 C 297.482 135.798, 290.182 131.485, 289.369 132.298 C 289.129 132.538, 289.445 134.932, 290.072 137.617 C 291.764 144.863, 291.500 157.552, 289.492 165.500 C 287.349 173.979, 281.113 187.218, 277.009 192 C 275.356 193.925, 274.004 195.913, 274.002 196.417 C 274.001 196.921, 273.767 197.101, 273.483 196.816 C 273.198 196.532, 274.567 193.644, 276.523 190.400 C 281.455 182.221, 285 170.096, 285 161.408 C 285 142.967, 275.329 125.815, 261.274 119.331 C 251.770 114.946, 234.700 114.882, 215.500 119.160 C 194.598 123.817, 168.329 133.325, 148.300 143.483 C 129.565 152.984, 108.087 166.138, 108.021 168.152 C 108.010 168.511, 110.138 168.149, 112.750 167.349 C 125.842 163.338, 153.619 156.727, 167.040 154.428 C 180.350 152.148, 184.275 151.885, 200.315 152.203 C 221.160 152.616, 226.891 154.038, 234.831 160.767 C 247.317 171.350, 248.518 189.162, 237.953 207.079 C 233.201 215.138, 226.746 222.269, 196.381 253 C 173.263 276.397, 161.845 289.152, 149.500 305.370 C 145.100 311.150, 141.262 315.907, 140.972 315.940 C 139.839 316.069, 136.609 303.159, 136.212 296.916 C 135.882 291.728, 136.225 289.437, 137.830 286.116 L 139.867 281.900 137.368 280.950 C 135.994 280.427, 134.369 280, 133.756 280 C 132.345 280, 126.051 278.033, 123.764 276.877 C 122.809 276.395, 121.142 276, 120.061 276 C 118.979 276, 116.946 275.477, 115.543 274.838 C 112.383 273.398, 111.163 274.398, 113.217 276.744 C 115.258 279.074, 128.542 309, 127.536 309 C 126.516 309, 115.290 289.638, 110.483 279.589 C 94.545 246.265, 87.845 215.269, 89.486 182.447 C 89.875 174.669, 90.487 167.875, 90.846 167.347 C 91.949 165.730, 125.273 146.910, 141.353 138.823 C 145.673 136.651, 148.969 134.636, 148.679 134.345 C 148.388 134.055, 141.090 135.457, 132.462 137.462 C 123.833 139.466, 116.604 140.938, 116.399 140.732 C 116.193 140.527, 120.100 135.275, 125.082 129.063 C 132.924 119.282, 136.771 113.320, 135.778 112.490 C 135.625 112.363, 132.332 114.338, 128.459 116.879 M 322.500 128.010 L 319.500 128.570 324.976 132.535 L 330.452 136.500 319.976 137 C 314.214 137.275, 309.980 137.813, 310.566 138.195 C 312.010 139.137, 322.077 142.381, 350 150.901 C 352.255 151.589, 352.626 152.487, 353.787 160.052 C 354.494 164.666, 355.868 169.804, 356.839 171.470 C 358.400 174.149, 359.295 174.574, 364.552 175.140 C 372.402 175.985, 381.284 178.994, 393.500 184.947 C 407.964 191.995, 407.629 191.647, 405.186 197.057 C 403.935 199.828, 402.932 204.887, 402.521 210.500 C 402.159 215.450, 401.480 221.525, 401.012 224 C 400.544 226.475, 399.610 231.425, 398.937 235 C 398.264 238.575, 396.575 245.775, 395.184 251 C 393.257 258.233, 392.708 262.528, 392.881 269 C 393.145 278.834, 391.039 290.051, 387.463 297.862 C 386.108 300.821, 385 303.471, 385 303.751 C 385 304.859, 393.997 303.161, 397.531 301.385 C 401.496 299.393, 402.163 298.125, 407.463 282.500 C 413.996 263.243, 415.728 255.642, 419.994 227.500 C 420.578 223.650, 421.395 213.523, 421.810 204.996 C 422.560 189.599, 422.588 189.460, 425.884 184.668 C 432.073 175.673, 435.461 164, 431.883 164 C 430.102 164, 431.072 161.518, 433.661 159.453 C 436.969 156.815, 436.275 155.597, 430.490 153.889 C 427.573 153.028, 426.133 152.097, 426.448 151.276 C 426.717 150.574, 426.252 150, 425.414 150 C 424.576 150, 422.002 149.140, 419.695 148.089 C 400.863 139.510, 383.131 134.689, 369.500 134.442 C 362.406 134.314, 356.594 133.500, 349.500 131.644 C 338.222 128.692, 326.966 127.177, 322.500 128.010 M 364.500 143.732 C 361.486 144.485, 361.032 145.825, 361.021 154 C 361.010 162.581, 362.433 168.937, 364.771 170.750 C 367.288 172.702, 368.039 172.233, 366.956 169.385 C 365.509 165.577, 364.694 149.767, 365.859 148.071 C 366.696 146.851, 367.692 146.835, 372.670 147.959 C 381.184 149.881, 403.890 157.460, 410.075 160.443 C 414.562 162.608, 415.626 162.802, 416.765 161.664 C 417.903 160.525, 416.479 159.587, 407.809 155.766 C 395.509 150.344, 387.496 147.568, 376.596 144.955 C 368.203 142.943, 367.815 142.904, 364.500 143.732 M 417.323 167.601 C 416.985 168.481, 417.272 169.550, 417.961 169.976 C 420.894 171.788, 414.508 182.060, 408.776 184.751 C 406.727 185.713, 405.040 186.789, 405.026 187.142 C 404.977 188.354, 410.042 189.048, 411.857 188.077 C 416.426 185.631, 424.894 173.585, 424.978 169.411 C 425 168.339, 420.847 166, 418.922 166 C 418.380 166, 417.661 166.720, 417.323 167.601 M 363.250 179.125 C 362.472 179.918, 362.001 183.252, 362.004 187.950 C 362.008 196.788, 364.036 201.130, 369.228 203.418 L 372.500 204.860 369.357 204.326 C 366.603 203.859, 365.910 204.239, 363.768 207.391 C 361.013 211.445, 359.776 211.267, 361.002 206.993 C 361.565 205.030, 361.394 203.569, 360.455 202.319 C 359.704 201.318, 358.793 197.974, 358.431 194.887 L 357.773 189.274 341.636 194.776 C 332.761 197.803, 325.312 200.441, 325.083 200.640 C 324.240 201.369, 325.626 201.767, 331 202.338 C 344.241 203.747, 358.015 211.072, 369.909 223.030 C 378.723 231.892, 378.969 231.897, 381.680 223.296 C 384.800 213.398, 384.899 212.269, 382.842 210.061 C 381.786 208.927, 380.415 208, 379.794 208 C 379.174 208, 378.879 207.787, 379.140 207.527 C 379.400 207.267, 381.268 207.511, 383.292 208.070 C 387.663 209.277, 389.752 208.420, 395.332 203.132 C 399.060 199.600, 402 195.161, 402 193.067 C 402 191.701, 394.169 187.791, 381.659 182.912 C 369.812 178.291, 365.032 177.308, 363.250 179.125 M 134.825 189.448 C 121.821 192.298, 110.420 201.144, 104.932 212.642 C 99.999 222.979, 99.896 237.366, 104.680 247.890 C 107.086 253.181, 113.602 261.678, 116.412 263.189 C 130.332 270.670, 134.415 272, 143.471 272 C 159.410 272, 174.333 262.743, 181.456 248.437 C 184.161 243.004, 184.414 241.609, 184.429 232 C 184.448 220.195, 183.005 214.800, 177.784 207.146 C 171.773 198.336, 163.923 192.819, 153.144 189.830 C 145.647 187.751, 142.837 187.693, 134.825 189.448 M 150.428 200.490 C 153.881 205.577, 154.510 211.243, 152.488 219.039 L 150.813 225.500 155.035 229.250 C 157.357 231.313, 159.551 233, 159.909 233 C 161.372 233, 163.172 226.021, 163.648 218.500 C 164.427 206.224, 160.864 200.653, 150.230 197.521 L 147.960 196.853 150.428 200.490 M 127.744 200.956 C 122.787 203.432, 117.965 207.525, 115.522 211.329 L 113.544 214.410 118.022 211.346 C 122.846 208.045, 132.056 204.508, 138.500 203.481 C 145.213 202.412, 145.785 202.067, 143.559 200.429 C 140.821 198.414, 132.262 198.699, 127.744 200.956 M 136.003 207.738 C 131.129 208.647, 121.433 213.772, 116.826 217.875 C 110.437 223.563, 108.269 229.250, 110.015 235.741 C 111.683 241.943, 112.644 242.897, 113.464 239.166 C 114.445 234.697, 121.196 227.592, 126.718 225.217 C 129.354 224.083, 134.434 222.836, 138.006 222.447 C 141.578 222.058, 145.040 221.311, 145.701 220.788 C 147.212 219.591, 148.417 211.890, 147.531 209.099 C 146.984 207.375, 146.118 207.024, 142.683 207.136 C 140.382 207.211, 137.377 207.482, 136.003 207.738 M 167.392 217.878 C 167.322 224.142, 166.707 229.038, 165.631 231.906 C 164.722 234.329, 164.096 236.418, 164.239 236.549 C 164.383 236.679, 166.201 237.733, 168.280 238.893 C 173.658 241.890, 175.621 241.644, 176.375 237.875 C 177.323 233.135, 177.115 225.964, 175.900 221.500 C 174.737 217.228, 170.163 209.276, 168.503 208.640 C 167.880 208.401, 167.459 211.900, 167.392 217.878 M 132.250 229.491 C 128.305 231.206, 128.220 232.288, 131.672 236.815 C 139.547 247.139, 153.454 256, 161.782 256 C 165.267 256, 166.297 255.463, 168.927 252.272 C 170.617 250.222, 172 248.021, 172 247.381 C 172 246.741, 170.313 245.511, 168.250 244.647 C 163.794 242.781, 158.388 239.222, 150.178 232.750 C 145.055 228.712, 143.504 228.006, 139.826 228.039 C 137.447 228.061, 134.037 228.714, 132.250 229.491 M 121.096 237.866 C 119.935 239.496, 118.709 242.844, 118.372 245.306 C 117.792 249.534, 117.992 250.036, 121.986 254.369 C 130.099 263.170, 143.620 266.588, 153.628 262.367 C 157.478 260.743, 157.486 260.728, 155 259.775 C 143.099 255.209, 135.473 249.661, 128.653 240.607 C 126.537 237.798, 124.446 235.365, 124.006 235.201 C 123.566 235.037, 122.256 236.236, 121.096 237.866 M 424.302 250.501 C 421.574 252.412, 420.490 257.176, 422.097 260.191 C 426.318 268.114, 437 265.737, 437 256.874 C 437 250.197, 429.855 246.611, 424.302 250.501 M 82.502 292.250 C 84.266 310.563, 88.807 322.005, 97.866 330.964 C 102.976 336.016, 115.470 343.863, 116.603 342.730 C 116.858 342.476, 115.518 340.415, 113.625 338.150 C 104.822 327.613, 87.427 297.763, 84.547 288.250 C 83.142 283.610, 81.904 286.032, 82.502 292.250 M 249 291.706 C 235.320 300.469, 230.924 303.499, 220.596 311.285 C 214.049 316.220, 207.524 321.264, 206.096 322.493 C 185.689 340.057, 173.492 351.452, 167.692 358.372 L 163.609 363.245 167.601 366.872 C 173.618 372.341, 177.151 375.315, 180.862 378.037 L 184.221 380.500 189.209 375 C 193.480 370.291, 202.920 359.032, 207.997 352.593 C 208.823 351.544, 210.895 349.069, 212.600 347.093 C 221.471 336.813, 250.971 295.845, 252.646 291.481 C 253.368 289.599, 252.174 289.673, 249 291.706 M 309.135 300.539 C 307.285 301.343, 304.953 302, 303.953 302 C 302.954 302, 301.164 303.365, 299.976 305.034 L 297.815 308.069 300.291 311.284 C 302.617 314.304, 309 318.853, 309 317.491 C 309 317.149, 308.554 316.034, 308.008 315.015 C 306.360 311.936, 308.001 303.904, 310.809 301.301 C 313.692 298.629, 313.615 298.594, 309.135 300.539 M 324.500 354.104 C 322.300 355.735, 319.825 357.624, 319 358.299 C 318.175 358.975, 315.925 360.638, 314 361.994 C 312.075 363.350, 305.447 368.411, 299.270 373.240 C 293.094 378.070, 286.119 383.380, 283.770 385.041 C 281.422 386.702, 276.350 390.277, 272.500 392.986 C 261.141 400.978, 259.612 402.611, 267 398.857 C 283.499 390.475, 307.001 373.607, 321.370 359.834 C 330.578 351.008, 331.874 348.634, 324.500 354.104" stroke="none" fill="#082248" fill-rule="evenodd"/></svg>